<svg id="Layer_1" data-name="Layer 1" xmlns="http://www.w3.org/2000/svg" viewBox="0 0 30 30"><defs><style>.cls-1{fill:#53d150;}</style></defs><path class="cls-1" d="M15,0A15,15,0,1,0,28.86,9.26a15,15,0,0,0-8.12-8.12A15.07,15.07,0,0,0,15,0Zm0,27a12,12,0,1,1,8.49-3.51A12,12,0,0,1,15,27Z"/><path class="cls-1" d="M19.05,9.59l-5.67,7.49-2.45-3.16a1.51,1.51,0,0,0-1-.57,1.51,1.51,0,0,0-1.68,1.31,1.53,1.53,0,0,0,.3,1.11l3.65,4.66a1.46,1.46,0,0,0,.53.42,1.47,1.47,0,0,0,.65.15,1.56,1.56,0,0,0,.67-.15,1.66,1.66,0,0,0,.52-.43l6.85-9a1.5,1.5,0,0,0-.28-2.11A1.55,1.55,0,0,0,20,9a1.58,1.58,0,0,0-1,.59Z"/></svg>